<?xml version="1.0" encoding="utf-8"?>
<!-- Generator: Adobe Illustrator 24.2.1, SVG Export Plug-In . SVG Version: 6.00 Build 0)  -->
<svg version="1.1" xmlns="http://www.w3.org/2000/svg" xmlns:xlink="http://www.w3.org/1999/xlink" x="0px" y="0px"
	 viewBox="0 0 526.8 277" style="enable-background:new 0 0 526.8 277;" xml:space="preserve">
<style type="text/css">
	.st0{display:none;}
	.st1{fill:#054128;}
	.st2{fill:none;stroke:#054128;stroke-width:2.2536;stroke-miterlimit:10;}
</style>
<g id="Layer_1" class="st0">
</g>
<g id="Layer_2">
	<g>
		<path class="st1" d="M144.7,75.6h9.1v11.1l9.5-11.1h12.1l-10.7,11.1l11.2,18.3h-11.2l-6.2-12.1l-4.7,4.9v7.2h-9.1V75.6z"/>
		<path class="st1" d="M200.6,96.4h-16.4c0.1,1.3,0.5,2.3,1.1,2.9c0.8,0.9,1.8,1.4,3.1,1.4c0.8,0,1.6-0.2,2.3-0.6
			c0.4-0.3,0.9-0.7,1.4-1.3l8,0.7c-1.2,2.1-2.7,3.7-4.5,4.6c-1.7,0.9-4.2,1.4-7.5,1.4c-2.8,0-5-0.4-6.7-1.2c-1.6-0.8-3-2.1-4-3.8
			c-1.1-1.7-1.6-3.8-1.6-6.1c0-3.3,1.1-6,3.2-8.1c2.1-2.1,5.1-3.1,8.8-3.1c3,0,5.5,0.5,7.2,1.4s3.1,2.3,4,4c0.9,1.8,1.4,4,1.4,6.8
			V96.4z M192.3,92.4c-0.2-1.6-0.6-2.7-1.3-3.4c-0.7-0.7-1.6-1-2.7-1c-1.3,0-2.3,0.5-3.1,1.5c-0.5,0.6-0.8,1.6-0.9,2.9H192.3z"/>
		<path class="st1" d="M204.6,75.6h8.2V105h-8.2V75.6z"/>
		<path class="st1" d="M218.3,75.6h8.2V105h-8.2V75.6z"/>
		<path class="st1" d="M230.1,83.7h8.6l4.4,14.2l4.1-14.2h8l-8.5,22.8c-1,2.6-1.9,4.3-2.9,5.3c-1.4,1.3-3.6,1.9-6.5,1.9
			c-1.2,0-3-0.2-5.5-0.5l-0.6-5.7c1.2,0.4,2.5,0.6,3.9,0.6c1,0,1.7-0.2,2.3-0.7c0.6-0.4,1.1-1.2,1.5-2.4L230.1,83.7z"/>
		<path class="st1" d="M295,90.7l6.4,1.4c-0.3,1.2-0.7,2.1-1,2.8c-0.3,0.7-0.7,1.5-1.3,2.5l3.1,2.1c0.4,0.2,0.9,0.5,1.4,0.9
			l-4.4,5.1c-0.8-0.4-1.6-0.9-2.5-1.5c-0.9-0.6-1.6-1-2.3-1.4c-1.4,0.9-2.8,1.6-4.3,2c-2,0.6-4.2,0.9-6.7,0.9
			c-3.9,0-6.8-0.8-8.7-2.4c-1.9-1.6-2.9-3.6-2.9-5.9c0-1.7,0.6-3.3,1.7-4.7c1.1-1.5,3-2.8,5.5-3.8c-1.1-1.3-1.8-2.4-2.2-3.4
			c-0.4-1-0.6-1.9-0.6-2.9c0-2.1,0.8-3.8,2.4-5.2c1.6-1.4,4-2,7.2-2c3.3,0,5.7,0.6,7.3,1.9c1.6,1.3,2.3,2.8,2.3,4.6
			c0,1-0.2,2-0.7,2.9c-0.5,0.9-1,1.7-1.7,2.2c-0.7,0.6-1.9,1.4-3.6,2.6c1.4,1.4,2.9,2.8,4.5,4C294.3,92.5,294.7,91.6,295,90.7z
			 M282.7,92.7c-1.1,0.8-1.9,1.5-2.2,2c-0.4,0.6-0.6,1.2-0.6,1.8c0,1,0.4,1.8,1.3,2.6c0.8,0.8,1.9,1.1,3.3,1.1
			c1.5,0,3.1-0.6,4.9-1.7C287.6,97.2,285.4,95.2,282.7,92.7z M285.6,85.5c1.1-0.6,1.9-1.2,2.4-1.9c0.6-0.7,0.9-1.3,0.9-1.9
			c0-0.6-0.2-1.2-0.7-1.6c-0.5-0.4-1.1-0.7-2-0.7c-0.8,0-1.5,0.2-2,0.7c-0.5,0.5-0.8,1-0.8,1.7C283.4,82.7,284.1,83.9,285.6,85.5z"
			/>
		<path class="st1" d="M341.5,92.9l8,2.4c-0.5,2.2-1.4,4.1-2.5,5.6c-1.2,1.5-2.6,2.6-4.3,3.4c-1.7,0.8-3.9,1.1-6.5,1.1
			c-3.2,0-5.8-0.5-7.8-1.4c-2-0.9-3.8-2.6-5.2-4.9c-1.5-2.3-2.2-5.3-2.2-9c0-4.9,1.3-8.6,3.9-11.2c2.6-2.6,6.2-3.9,11-3.9
			c3.7,0,6.6,0.7,8.7,2.2c2.1,1.5,3.7,3.8,4.7,6.9l-8,1.8c-0.3-0.9-0.6-1.6-0.9-2c-0.5-0.7-1.1-1.2-1.9-1.6
			c-0.7-0.4-1.6-0.6-2.5-0.6c-2.1,0-3.6,0.8-4.7,2.5c-0.8,1.2-1.2,3.2-1.2,5.8c0,3.3,0.5,5.5,1.5,6.7c1,1.2,2.4,1.8,4.2,1.8
			c1.7,0,3.1-0.5,3.9-1.5C340.5,96.2,341.1,94.8,341.5,92.9z"/>
		<path class="st1" d="M352.4,94.4c0-3.2,1.1-5.9,3.3-8c2.2-2.1,5.2-3.2,8.9-3.2c4.3,0,7.5,1.2,9.7,3.7c1.8,2,2.6,4.4,2.6,7.4
			c0,3.3-1.1,6-3.3,8.1c-2.2,2.1-5.2,3.1-9,3.1c-3.4,0-6.2-0.9-8.3-2.6C353.7,100.7,352.4,97.9,352.4,94.4z M360.6,94.4
			c0,1.9,0.4,3.3,1.2,4.2c0.8,0.9,1.7,1.4,2.9,1.4c1.2,0,2.1-0.4,2.9-1.3c0.8-0.9,1.1-2.3,1.1-4.3c0-1.8-0.4-3.2-1.1-4.1
			c-0.8-0.9-1.7-1.4-2.8-1.4c-1.2,0-2.2,0.5-2.9,1.4S360.6,92.5,360.6,94.4z"/>
		<path class="st1" d="M380.8,83.7h7.6v3.1c1.1-1.3,2.2-2.2,3.3-2.8c1.1-0.5,2.5-0.8,4-0.8c1.7,0,3,0.3,4,0.9c1,0.6,1.8,1.5,2.4,2.7
			c1.3-1.4,2.5-2.3,3.5-2.8c1.1-0.5,2.4-0.8,3.9-0.8c2.3,0,4.1,0.7,5.3,2c1.3,1.4,1.9,3.5,1.9,6.4V105h-8.2V92.8
			c0-1-0.2-1.7-0.6-2.1c-0.5-0.7-1.2-1.1-2-1.1c-1,0-1.7,0.3-2.3,1c-0.6,0.7-0.9,1.8-0.9,3.3v11h-8.2V93.2c0-0.9-0.1-1.6-0.2-1.9
			c-0.2-0.5-0.5-1-0.9-1.3c-0.4-0.3-0.9-0.5-1.5-0.5c-0.9,0-1.7,0.4-2.3,1.1c-0.6,0.7-0.9,1.9-0.9,3.5V105h-8.2V83.7z"/>
		<path class="st1" d="M421.9,113.1V83.7h7.6v3.1c1.1-1.3,2-2.2,2.9-2.7c1.2-0.6,2.5-0.9,4-0.9c2.8,0,5.1,1.1,6.6,3.3
			c1.6,2.2,2.3,4.9,2.3,8.1c0,3.5-0.8,6.2-2.5,8.1c-1.7,1.9-3.8,2.8-6.4,2.8c-1.3,0-2.4-0.2-3.4-0.6c-1-0.4-2-1.1-2.8-1.9v10.2
			H421.9z M430.1,94.4c0,1.7,0.4,2.9,1.1,3.8c0.7,0.8,1.6,1.2,2.7,1.2c0.9,0,1.7-0.4,2.4-1.2c0.6-0.8,1-2.1,1-4c0-1.7-0.3-3-1-3.8
			c-0.7-0.8-1.5-1.2-2.4-1.2c-1,0-1.9,0.4-2.6,1.2C430.4,91.2,430.1,92.6,430.1,94.4z"/>
		<path class="st1" d="M456.7,90.6l-7.8-0.8c0.3-1.4,0.7-2.4,1.3-3.2c0.6-0.8,1.4-1.5,2.4-2c0.7-0.4,1.8-0.7,3.1-1s2.7-0.3,4.3-0.3
			c2.4,0,4.4,0.1,5.9,0.4c1.5,0.3,2.7,0.8,3.7,1.7c0.7,0.6,1.2,1.5,1.6,2.6s0.6,2.2,0.6,3.2v9.4c0,1,0.1,1.8,0.2,2.4
			c0.1,0.6,0.4,1.3,0.8,2.2h-7.7c-0.3-0.5-0.5-1-0.6-1.3c-0.1-0.3-0.2-0.7-0.3-1.4c-1.1,1-2.1,1.8-3.2,2.2c-1.4,0.6-3.1,0.9-5,0.9
			c-2.5,0-4.5-0.6-5.8-1.8c-1.3-1.2-2-2.6-2-4.4c0-1.6,0.5-2.9,1.4-4c0.9-1,2.7-1.8,5.3-2.3c3.1-0.6,5-1,6-1.3
			c0.9-0.2,1.9-0.6,2.9-1c0-1-0.2-1.7-0.6-2.1c-0.4-0.4-1.1-0.6-2.2-0.6c-1.3,0-2.3,0.2-3,0.6C457.4,89,457,89.7,456.7,90.6z
			 M463.8,94.9c-1.1,0.4-2.3,0.8-3.5,1.1c-1.7,0.4-2.7,0.9-3.1,1.3c-0.5,0.4-0.7,0.9-0.7,1.5c0,0.6,0.2,1.2,0.7,1.6
			c0.4,0.4,1.1,0.6,2,0.6c0.9,0,1.8-0.2,2.5-0.7c0.8-0.4,1.3-1,1.7-1.6c0.3-0.6,0.5-1.5,0.5-2.5V94.9z"/>
		<path class="st1" d="M476.7,83.7h7.6v3.5c1.1-1.4,2.3-2.4,3.4-3c1.2-0.6,2.6-0.9,4.3-0.9c2.3,0,4,0.7,5.3,2
			c1.3,1.3,1.9,3.4,1.9,6.2V105H491V93.3c0-1.3-0.2-2.3-0.7-2.8c-0.5-0.6-1.2-0.8-2.1-0.8c-1,0-1.8,0.4-2.4,1.1
			c-0.6,0.7-0.9,2.1-0.9,4V105h-8.2V83.7z"/>
		<path class="st1" d="M501.7,83.7h8.6l4.4,14.2l4.1-14.2h8l-8.5,22.8c-1,2.6-1.9,4.3-2.9,5.3c-1.4,1.3-3.6,1.9-6.5,1.9
			c-1.2,0-3-0.2-5.5-0.5l-0.6-5.7c1.2,0.4,2.5,0.6,3.9,0.6c1,0,1.7-0.2,2.3-0.7c0.6-0.4,1.1-1.2,1.5-2.4L501.7,83.7z"/>
	</g>
	<g>
		<path class="st1" d="M217.1,201.2l12-31.3h4.5l12.8,31.3h-4.7l-3.6-9.5h-13.1l-3.4,9.5H217.1z M226.1,188.4h10.6l-3.3-8.7
			c-1-2.6-1.7-4.8-2.2-6.5c-0.4,2-1,4-1.7,6L226.1,188.4z"/>
		<path class="st1" d="M283.7,190.3l4.1,1c-0.9,3.4-2.4,6-4.7,7.8c-2.3,1.8-5,2.7-8.3,2.7c-3.4,0-6.1-0.7-8.2-2.1
			c-2.1-1.4-3.7-3.4-4.8-6c-1.1-2.6-1.7-5.4-1.7-8.4c0-3.3,0.6-6.1,1.9-8.5c1.2-2.4,3-4.3,5.3-5.5c2.3-1.3,4.8-1.9,7.6-1.9
			c3.1,0,5.8,0.8,7.9,2.4c2.1,1.6,3.6,3.8,4.5,6.7l-4.1,1c-0.7-2.3-1.8-3.9-3.2-5c-1.4-1-3.1-1.6-5.2-1.6c-2.4,0-4.4,0.6-6,1.7
			c-1.6,1.2-2.7,2.7-3.4,4.6c-0.7,1.9-1,3.9-1,6c0,2.7,0.4,5,1.2,7c0.8,2,2,3.5,3.6,4.4c1.6,1,3.4,1.5,5.3,1.5c2.3,0,4.3-0.7,5.9-2
			C282,194.9,283.1,192.9,283.7,190.3z"/>
		<path class="st1" d="M291.4,189.9c0-4.2,1.2-7.3,3.5-9.3c1.9-1.7,4.3-2.5,7.1-2.5c3.1,0,5.7,1,7.6,3.1s3,4.9,3,8.5
			c0,2.9-0.4,5.2-1.3,6.9c-0.9,1.7-2.1,3-3.8,3.9c-1.7,0.9-3.5,1.4-5.5,1.4c-3.2,0-5.7-1-7.7-3.1
			C292.4,196.7,291.4,193.7,291.4,189.9z M295.4,189.9c0,2.9,0.6,5.1,1.9,6.5s2.9,2.2,4.8,2.2c1.9,0,3.5-0.7,4.8-2.2
			c1.3-1.5,1.9-3.7,1.9-6.6c0-2.8-0.6-4.9-1.9-6.4c-1.3-1.4-2.9-2.2-4.7-2.2c-1.9,0-3.5,0.7-4.8,2.2
			C296,184.8,295.4,187,295.4,189.9z"/>
		<path class="st1" d="M317.8,201.2v-22.7h3.4v3.2c0.7-1.1,1.7-2,2.8-2.7s2.5-1,4-1c1.7,0,3.1,0.3,4.1,1c1.1,0.7,1.8,1.7,2.3,2.9
			c1.8-2.6,4.1-4,7-4c2.2,0,4,0.6,5.2,1.9s1.8,3.2,1.8,5.7v15.6h-3.8V187c0-1.5-0.1-2.6-0.4-3.3c-0.2-0.7-0.7-1.2-1.4-1.6
			c-0.7-0.4-1.4-0.6-2.3-0.6c-1.6,0-2.9,0.5-4,1.6c-1.1,1.1-1.6,2.8-1.6,5.1v13.2h-3.8v-14.7c0-1.7-0.3-3-0.9-3.8
			c-0.6-0.9-1.7-1.3-3.1-1.3c-1.1,0-2.1,0.3-3,0.9c-0.9,0.6-1.6,1.4-2,2.5c-0.4,1.1-0.6,2.7-0.6,4.7v11.8H317.8z"/>
		<path class="st1" d="M354.9,201.2v-22.7h3.4v3.2c0.7-1.1,1.7-2,2.8-2.7c1.2-0.7,2.5-1,4-1c1.7,0,3.1,0.3,4.1,1
			c1.1,0.7,1.8,1.7,2.3,2.9c1.8-2.6,4.1-4,7-4c2.2,0,4,0.6,5.2,1.9s1.8,3.2,1.8,5.7v15.6h-3.8V187c0-1.5-0.1-2.6-0.4-3.3
			c-0.2-0.7-0.7-1.2-1.4-1.6c-0.7-0.4-1.4-0.6-2.3-0.6c-1.6,0-2.9,0.5-4,1.6c-1.1,1.1-1.6,2.8-1.6,5.1v13.2h-3.8v-14.7
			c0-1.7-0.3-3-0.9-3.8c-0.6-0.9-1.6-1.3-3.1-1.3c-1.1,0-2.1,0.3-3,0.9c-0.9,0.6-1.6,1.4-2,2.5c-0.4,1.1-0.6,2.7-0.6,4.7v11.8H354.9
			z"/>
		<path class="st1" d="M391.9,174.4v-4.4h3.8v4.4H391.9z M391.9,201.2v-22.7h3.8v22.7H391.9z"/>
		<path class="st1" d="M410.7,197.8l0.6,3.4c-1.1,0.2-2,0.3-2.9,0.3c-1.4,0-2.5-0.2-3.2-0.7c-0.8-0.4-1.3-1-1.6-1.7
			c-0.3-0.7-0.5-2.2-0.5-4.5v-13h-2.8v-3h2.8V173l3.8-2.3v7.9h3.9v3h-3.9v13.2c0,1.1,0.1,1.8,0.2,2.1c0.1,0.3,0.4,0.6,0.7,0.7
			c0.3,0.2,0.7,0.3,1.3,0.3C409.4,197.9,410,197.9,410.7,197.8z"/>
		<path class="st1" d="M415.4,201.2v-22.7h3.4v3.2c0.7-1.1,1.7-2,2.8-2.7c1.2-0.7,2.5-1,4-1c1.7,0,3.1,0.3,4.1,1
			c1.1,0.7,1.8,1.7,2.3,2.9c1.8-2.6,4.1-4,7-4c2.2,0,4,0.6,5.2,1.9c1.2,1.2,1.8,3.2,1.8,5.7v15.6h-3.8V187c0-1.5-0.1-2.6-0.4-3.3
			c-0.2-0.7-0.7-1.2-1.4-1.6c-0.7-0.4-1.4-0.6-2.3-0.6c-1.6,0-2.9,0.5-4,1.6c-1.1,1.1-1.6,2.8-1.6,5.1v13.2h-3.8v-14.7
			c0-1.7-0.3-3-0.9-3.8c-0.6-0.9-1.6-1.3-3.1-1.3c-1.1,0-2.1,0.3-3,0.9c-0.9,0.6-1.6,1.4-2,2.5c-0.4,1.1-0.6,2.7-0.6,4.7v11.8H415.4
			z"/>
		<path class="st1" d="M467.9,193.9l4,0.5c-0.6,2.3-1.8,4.1-3.5,5.4c-1.7,1.3-3.9,1.9-6.5,1.9c-3.3,0-5.9-1-7.9-3.1
			c-1.9-2-2.9-4.9-2.9-8.6c0-3.8,1-6.8,2.9-8.9c2-2.1,4.5-3.2,7.6-3.2c3,0,5.5,1,7.4,3.1c1.9,2.1,2.9,5,2.9,8.7c0,0.2,0,0.6,0,1
			h-16.9c0.1,2.5,0.8,4.4,2.1,5.7c1.3,1.3,2.8,2,4.7,2c1.4,0,2.6-0.4,3.6-1.1C466.6,196.7,467.4,195.6,467.9,193.9z M455.3,187.7
			H468c-0.2-1.9-0.7-3.3-1.5-4.3c-1.2-1.5-2.8-2.2-4.8-2.2c-1.8,0-3.2,0.6-4.4,1.8C456.1,184.2,455.5,185.7,455.3,187.7z"/>
		<path class="st1" d="M477.4,201.2v-22.7h3.5v3.2c1.7-2.5,4.1-3.7,7.2-3.7c1.4,0,2.6,0.2,3.8,0.7c1.1,0.5,2,1.1,2.6,1.9
			c0.6,0.8,1,1.7,1.2,2.8c0.1,0.7,0.2,2,0.2,3.7v13.9H492v-13.8c0-1.6-0.1-2.7-0.4-3.5c-0.3-0.8-0.8-1.4-1.6-1.9
			c-0.8-0.5-1.7-0.7-2.7-0.7c-1.6,0-3,0.5-4.2,1.6c-1.2,1-1.8,3-1.8,5.9v12.4H477.4z"/>
		<path class="st1" d="M510.7,197.8l0.6,3.4c-1.1,0.2-2,0.3-2.9,0.3c-1.4,0-2.5-0.2-3.2-0.7c-0.8-0.4-1.3-1-1.6-1.7
			c-0.3-0.7-0.5-2.2-0.5-4.5v-13h-2.8v-3h2.8V173l3.8-2.3v7.9h3.9v3h-3.9v13.2c0,1.1,0.1,1.8,0.2,2.1c0.1,0.3,0.4,0.6,0.7,0.7
			c0.3,0.2,0.7,0.3,1.3,0.3C509.5,197.9,510,197.9,510.7,197.8z"/>
		<path class="st1" d="M228.4,253.4l0.6,3.4c-1.1,0.2-2,0.3-2.9,0.3c-1.4,0-2.5-0.2-3.2-0.7c-0.8-0.4-1.3-1-1.6-1.7
			c-0.3-0.7-0.5-2.2-0.5-4.5v-13h-2.8v-3h2.8v-5.6l3.8-2.3v7.9h3.9v3h-3.9v13.2c0,1.1,0.1,1.8,0.2,2.1c0.1,0.3,0.4,0.6,0.7,0.7
			c0.3,0.2,0.7,0.3,1.3,0.3C227.1,253.5,227.7,253.5,228.4,253.4z"/>
		<path class="st1" d="M230.2,245.5c0-4.2,1.2-7.3,3.5-9.3c1.9-1.7,4.3-2.5,7.1-2.5c3.1,0,5.7,1,7.6,3.1c2,2,3,4.9,3,8.5
			c0,2.9-0.4,5.2-1.3,6.9c-0.9,1.7-2.1,3-3.8,3.9c-1.7,0.9-3.5,1.4-5.5,1.4c-3.2,0-5.7-1-7.7-3.1
			C231.2,252.2,230.2,249.3,230.2,245.5z M234.2,245.5c0,2.9,0.6,5.1,1.9,6.5c1.3,1.4,2.9,2.2,4.8,2.2c1.9,0,3.5-0.7,4.8-2.2
			c1.3-1.5,1.9-3.7,1.9-6.6c0-2.8-0.6-4.9-1.9-6.4c-1.3-1.4-2.9-2.2-4.7-2.2c-1.9,0-3.5,0.7-4.8,2.2
			C234.8,240.4,234.2,242.6,234.2,245.5z"/>
		<path class="st1" d="M266,256.8v-31.3h13.9c2.8,0,4.9,0.3,6.4,0.8c1.5,0.6,2.6,1.6,3.5,3c0.9,1.4,1.3,3,1.3,4.7
			c0,2.2-0.7,4.1-2.2,5.6c-1.4,1.5-3.7,2.5-6.7,2.9c1.1,0.5,1.9,1,2.5,1.6c1.2,1.1,2.4,2.5,3.4,4.2l5.4,8.5h-5.2l-4.1-6.5
			c-1.2-1.9-2.2-3.3-3-4.3c-0.8-1-1.5-1.7-2.1-2.1c-0.6-0.4-1.2-0.7-1.9-0.8c-0.5-0.1-1.2-0.1-2.3-0.1h-4.8v13.9H266z M270.1,239.3
			h8.9c1.9,0,3.4-0.2,4.4-0.6c1.1-0.4,1.9-1,2.4-1.9c0.6-0.9,0.8-1.8,0.8-2.8c0-1.5-0.5-2.7-1.6-3.6c-1.1-1-2.8-1.4-5.1-1.4h-9.9
			V239.3z"/>
		<path class="st1" d="M311.7,249.5l4,0.5c-0.6,2.3-1.8,4.1-3.5,5.4s-3.9,1.9-6.5,1.9c-3.3,0-5.9-1-7.9-3.1c-1.9-2-2.9-4.9-2.9-8.6
			c0-3.8,1-6.8,2.9-8.9c2-2.1,4.5-3.2,7.6-3.2c3,0,5.5,1,7.4,3.1c1.9,2.1,2.9,5,2.9,8.7c0,0.2,0,0.6,0,1h-16.9
			c0.1,2.5,0.8,4.4,2.1,5.7c1.3,1.3,2.8,2,4.7,2c1.4,0,2.6-0.4,3.6-1.1C310.4,252.3,311.2,251.1,311.7,249.5z M299.1,243.3h12.7
			c-0.2-1.9-0.7-3.3-1.5-4.3c-1.2-1.5-2.8-2.2-4.8-2.2c-1.8,0-3.2,0.6-4.4,1.8C299.9,239.7,299.3,241.3,299.1,243.3z"/>
		<path class="st1" d="M319.9,256.8v-31.3h3.8v31.3H319.9z"/>
		<path class="st1" d="M344,254c-1.4,1.2-2.8,2.1-4.1,2.6c-1.3,0.5-2.7,0.7-4.2,0.7c-2.5,0-4.4-0.6-5.7-1.8c-1.3-1.2-2-2.8-2-4.7
			c0-1.1,0.3-2.1,0.8-3c0.5-0.9,1.2-1.7,2-2.2c0.8-0.6,1.7-1,2.8-1.3c0.8-0.2,1.9-0.4,3.4-0.6c3.1-0.4,5.4-0.8,6.8-1.3
			c0-0.5,0-0.9,0-1c0-1.6-0.4-2.7-1.1-3.3c-1-0.9-2.4-1.3-4.4-1.3c-1.8,0-3.1,0.3-4,0.9c-0.9,0.6-1.5,1.8-1.9,3.4l-3.8-0.5
			c0.3-1.6,0.9-2.9,1.7-3.9c0.8-1,1.9-1.7,3.4-2.3c1.5-0.5,3.2-0.8,5.1-0.8c1.9,0,3.5,0.2,4.7,0.7c1.2,0.5,2.1,1,2.7,1.7
			c0.6,0.7,1,1.6,1.2,2.6c0.1,0.7,0.2,1.8,0.2,3.5v5.1c0,3.6,0.1,5.8,0.2,6.8c0.2,0.9,0.5,1.9,1,2.7h-4
			C344.3,256,344.1,255.1,344,254z M343.6,245.4c-1.4,0.6-3.5,1.1-6.3,1.5c-1.6,0.2-2.7,0.5-3.3,0.8c-0.7,0.3-1.2,0.7-1.5,1.2
			c-0.4,0.5-0.5,1.2-0.5,1.8c0,1,0.4,1.9,1.2,2.6c0.8,0.7,1.9,1,3.4,1c1.5,0,2.8-0.3,3.9-1c1.2-0.6,2-1.5,2.5-2.7
			c0.4-0.9,0.6-2.1,0.6-3.8V245.4z"/>
		<path class="st1" d="M361.3,253.4l0.6,3.4c-1.1,0.2-2,0.3-2.9,0.3c-1.4,0-2.5-0.2-3.2-0.7c-0.8-0.4-1.3-1-1.6-1.7
			c-0.3-0.7-0.5-2.2-0.5-4.5v-13h-2.8v-3h2.8v-5.6l3.8-2.3v7.9h3.9v3h-3.9v13.2c0,1.1,0.1,1.8,0.2,2.1c0.1,0.3,0.4,0.6,0.7,0.7
			c0.3,0.2,0.7,0.3,1.3,0.3C360.1,253.5,360.6,253.5,361.3,253.4z"/>
		<path class="st1" d="M364.8,229.9v-4.4h3.8v4.4H364.8z M364.8,256.8v-22.7h3.8v22.7H364.8z"/>
		<path class="st1" d="M372.5,245.5c0-4.2,1.2-7.3,3.5-9.3c1.9-1.7,4.3-2.5,7.1-2.5c3.1,0,5.7,1,7.6,3.1c2,2,3,4.9,3,8.5
			c0,2.9-0.4,5.2-1.3,6.9c-0.9,1.7-2.1,3-3.8,3.9c-1.7,0.9-3.5,1.4-5.5,1.4c-3.2,0-5.7-1-7.7-3.1
			C373.5,252.2,372.5,249.3,372.5,245.5z M376.5,245.5c0,2.9,0.6,5.1,1.9,6.5c1.3,1.4,2.9,2.2,4.8,2.2c1.9,0,3.5-0.7,4.8-2.2
			c1.3-1.5,1.9-3.7,1.9-6.6c0-2.8-0.6-4.9-1.9-6.4c-1.3-1.4-2.9-2.2-4.7-2.2c-1.9,0-3.5,0.7-4.8,2.2
			C377.1,240.4,376.5,242.6,376.5,245.5z"/>
		<path class="st1" d="M397.8,256.8v-22.7h3.5v3.2c1.7-2.5,4.1-3.7,7.2-3.7c1.4,0,2.6,0.2,3.8,0.7c1.1,0.5,2,1.1,2.6,1.9
			s1,1.7,1.2,2.8c0.1,0.7,0.2,2,0.2,3.7v13.9h-3.8V243c0-1.6-0.1-2.7-0.4-3.5c-0.3-0.8-0.8-1.4-1.6-1.9c-0.8-0.5-1.7-0.7-2.7-0.7
			c-1.6,0-3,0.5-4.2,1.6c-1.2,1-1.8,3-1.8,5.9v12.4H397.8z"/>
		<path class="st1" d="M419.9,250l3.8-0.6c0.2,1.5,0.8,2.7,1.8,3.5c1,0.8,2.3,1.2,4.1,1.2c1.8,0,3.1-0.4,3.9-1.1
			c0.9-0.7,1.3-1.6,1.3-2.5c0-0.9-0.4-1.6-1.1-2c-0.5-0.3-1.8-0.8-3.9-1.3c-2.8-0.7-4.8-1.3-5.9-1.8c-1.1-0.5-1.9-1.2-2.5-2.2
			c-0.6-0.9-0.8-1.9-0.8-3c0-1,0.2-1.9,0.7-2.8c0.5-0.9,1.1-1.6,1.9-2.1c0.6-0.4,1.4-0.8,2.4-1.1c1-0.3,2.1-0.5,3.3-0.5
			c1.8,0,3.3,0.3,4.7,0.8c1.3,0.5,2.3,1.2,3,2.1c0.6,0.9,1.1,2,1.3,3.5l-3.8,0.5c-0.2-1.2-0.7-2.1-1.5-2.7c-0.8-0.7-2-1-3.5-1
			c-1.8,0-3,0.3-3.8,0.9c-0.8,0.6-1.1,1.3-1.1,2c0,0.5,0.2,0.9,0.5,1.3c0.3,0.4,0.8,0.8,1.5,1c0.4,0.1,1.5,0.5,3.4,1
			c2.7,0.7,4.6,1.3,5.7,1.8c1.1,0.5,1.9,1.1,2.5,2c0.6,0.9,0.9,2,0.9,3.3c0,1.3-0.4,2.5-1.1,3.6c-0.7,1.1-1.8,2-3.2,2.6
			c-1.4,0.6-3,0.9-4.8,0.9c-2.9,0-5.2-0.6-6.7-1.8C421.3,254.3,420.3,252.4,419.9,250z"/>
		<path class="st1" d="M442.6,256.8v-31.3h3.8v11.2c1.8-2.1,4.1-3.1,6.8-3.1c1.7,0,3.1,0.3,4.4,1c1.2,0.7,2.1,1.6,2.7,2.7
			c0.5,1.2,0.8,2.9,0.8,5.1v14.4h-3.8v-14.4c0-1.9-0.4-3.3-1.2-4.2c-0.8-0.9-2-1.3-3.5-1.3c-1.1,0-2.2,0.3-3.2,0.9
			c-1,0.6-1.7,1.4-2.1,2.4c-0.4,1-0.6,2.4-0.6,4.2v12.4H442.6z"/>
		<path class="st1" d="M466.4,229.9v-4.4h3.8v4.4H466.4z M466.4,256.8v-22.7h3.8v22.7H466.4z"/>
		<path class="st1" d="M475.6,265.5v-31.3h3.5v2.9c0.8-1.2,1.8-2,2.8-2.6c1-0.6,2.3-0.9,3.8-0.9c1.9,0,3.6,0.5,5.1,1.5
			c1.5,1,2.6,2.4,3.3,4.2c0.8,1.8,1.1,3.8,1.1,6c0,2.3-0.4,4.4-1.2,6.3c-0.8,1.9-2,3.3-3.6,4.3c-1.6,1-3.3,1.5-5,1.5
			c-1.3,0-2.4-0.3-3.4-0.8c-1-0.5-1.9-1.2-2.5-2v11H475.6z M479,245.6c0,2.9,0.6,5.1,1.8,6.5c1.2,1.4,2.6,2.1,4.3,2.1
			c1.7,0,3.2-0.7,4.4-2.2c1.2-1.4,1.8-3.7,1.8-6.7c0-2.9-0.6-5-1.8-6.5c-1.2-1.4-2.6-2.2-4.3-2.2c-1.6,0-3.1,0.8-4.3,2.3
			C479.7,240.5,479,242.7,479,245.6z"/>
		<path class="st1" d="M497.8,250l3.8-0.6c0.2,1.5,0.8,2.7,1.8,3.5c1,0.8,2.3,1.2,4.1,1.2c1.8,0,3.1-0.4,3.9-1.1
			c0.9-0.7,1.3-1.6,1.3-2.5c0-0.9-0.4-1.6-1.1-2c-0.5-0.3-1.8-0.8-3.9-1.3c-2.8-0.7-4.8-1.3-5.9-1.8c-1.1-0.5-1.9-1.2-2.5-2.2
			c-0.6-0.9-0.8-1.9-0.8-3c0-1,0.2-1.9,0.7-2.8c0.5-0.9,1.1-1.6,1.9-2.1c0.6-0.4,1.4-0.8,2.4-1.1c1-0.3,2.1-0.5,3.3-0.5
			c1.8,0,3.3,0.3,4.7,0.8c1.3,0.5,2.3,1.2,3,2.1c0.6,0.9,1.1,2,1.3,3.5l-3.8,0.5c-0.2-1.2-0.7-2.1-1.5-2.7c-0.8-0.7-2-1-3.5-1
			c-1.8,0-3,0.3-3.8,0.9c-0.8,0.6-1.1,1.3-1.1,2c0,0.5,0.2,0.9,0.5,1.3c0.3,0.4,0.8,0.8,1.5,1c0.4,0.1,1.5,0.5,3.4,1
			c2.7,0.7,4.6,1.3,5.7,1.8c1.1,0.5,1.9,1.1,2.5,2c0.6,0.9,0.9,2,0.9,3.3c0,1.3-0.4,2.5-1.1,3.6c-0.7,1.1-1.8,2-3.2,2.6
			c-1.4,0.6-3,0.9-4.8,0.9c-2.9,0-5.2-0.6-6.7-1.8C499.2,254.3,498.2,252.4,497.8,250z"/>
	</g>
	<g>
		<rect x="204.9" y="151.1" class="st1" width="3.1" height="125.9"/>
	</g>
	<g>
		<rect y="20.3" class="st1" width="30.8" height="147.1"/>
	</g>
	<g>
		<polygon class="st1" points="156.6,167.5 125.8,167.5 55.4,96.6 129.9,20.3 160.7,20.3 86.2,96.6 		"/>
	</g>
	<g>
		<g>
			<rect x="40.1" class="st1" width="6.9" height="7"/>
		</g>
		<g>
			<rect x="40.1" y="18.3" class="st1" width="6.9" height="7"/>
		</g>
		<g>
			<rect x="40.1" y="36.6" class="st1" width="6.9" height="7"/>
		</g>
		<g>
			<rect x="40.1" y="54.8" class="st1" width="6.9" height="7"/>
		</g>
		<g>
			<rect x="40.1" y="73.1" class="st1" width="6.9" height="7"/>
		</g>
		<g>
			<rect x="40.1" y="91.4" class="st1" width="6.9" height="7"/>
		</g>
		<g>
			<rect x="40.1" y="109.7" class="st1" width="6.9" height="7"/>
		</g>
		<g>
			<rect x="40.1" y="127.9" class="st1" width="6.9" height="7"/>
		</g>
		<g>
			<rect x="40.1" y="146.2" class="st1" width="6.9" height="7"/>
		</g>
		<g>
			<rect x="40.1" y="164.5" class="st1" width="6.9" height="7"/>
		</g>
		<g>
			<path class="st1" d="M47.1,189.8h-6.9v-7h6.9V189.8z"/>
		</g>
	</g>
</g>
</svg>
